<?xml version="1.0" encoding="UTF-8"?>
<!-- Created with Inkscape (http://www.inkscape.org/) -->
<svg width="544.17" height="271.07" version="1.1" viewBox="0 0 544.17 271.07" xml:space="preserve" xmlns="http://www.w3.org/2000/svg" xmlns:cc="http://creativecommons.org/ns#" xmlns:dc="http://purl.org/dc/elements/1.1/" xmlns:rdf="http://www.w3.org/1999/02/22-rdf-syntax-ns#"><metadata><rdf:RDF><cc:Work rdf:about=""><dc:format>image/svg+xml</dc:format><dc:type rdf:resource="http://purl.org/dc/dcmitype/StillImage"/><dc:title/></cc:Work></rdf:RDF></metadata><g transform="matrix(1.3333 0 0 -1.3333 0 271.07)"><path d="m77.042 199.78h-69.538c-2.2009 0-3.9851-1.7842-3.9851-3.9851v-21.918c0-2.2009 1.7842-3.9851 3.9851-3.9851h69.538c2.2009 0 3.9851 1.7842 3.9851 3.9851v21.918c0 2.2009-1.7842 3.9851-3.9851 3.9851z" fill="#7c9ccd" stroke="#f5f5f5" stroke-miterlimit="10" stroke-width=".3985"/><text transform="scale(1,-1)" x="19.711994" y="-187.358" fill="#f5f5f5" font-family="'Noto Sans'" font-size="9.9626px" style="font-feature-settings:normal;font-variant-caps:normal;font-variant-ligatures:normal;font-variant-numeric:normal"><tspan x="19.711994" y="-187.358">Computer</tspan><tspan x="19.711994" y="-174.90475">Vision DSL</tspan></text>
<path d="m157.94 199.78h-69.538c-2.2009 0-3.9851-1.7842-3.9851-3.9851v-21.918c0-2.2009 1.7842-3.9851 3.9851-3.9851h69.538c2.2009 0 3.9851 1.7842 3.9851 3.9851v21.918c0 2.2009-1.7842 3.9851-3.9851 3.9851z" fill="#7c9ccd" stroke="#f5f5f5" stroke-miterlimit="10" stroke-width=".3985"/><text transform="scale(1,-1)" x="103.782" y="-181.381" fill="#f5f5f5" font-family="'Noto Sans'" font-size="9.9626px" style="font-feature-settings:normal;font-variant-caps:normal;font-variant-ligatures:normal;font-variant-numeric:normal"><tspan x="103.782" y="-181.381">Bio DSL</tspan></text>
<path d="m238.83 199.78h-69.538c-2.2009 0-3.9851-1.7842-3.9851-3.9851v-21.918c0-2.2009 1.7842-3.9851 3.9851-3.9851h69.538c2.2009 0 3.9851 1.7842 3.9851 3.9851v21.918c0 2.2009-1.7842 3.9851-3.9851 3.9851z" fill="#7c9ccd" stroke="#f5f5f5" stroke-miterlimit="10" stroke-width=".3985"/><text transform="scale(1,-1)" x="179.882" y="-187.358" fill="#f5f5f5" font-family="'Noto Sans'" font-size="9.9626px" style="font-feature-settings:normal;font-variant-caps:normal;font-variant-ligatures:normal;font-variant-numeric:normal"><tspan x="179.882" y="-187.358">Raytracing</tspan><tspan x="179.882" y="-174.90475">DSL</tspan></text>
<path d="m319.73 199.78h-69.538c-2.2009 0-3.9851-1.7842-3.9851-3.9851v-21.918c0-2.2009 1.7842-3.9851 3.9851-3.9851h69.538c2.2009 0 3.9851 1.7842 3.9851 3.9851v21.918c0 2.2009-1.7842 3.9851-3.9851 3.9851z" fill="#7c9ccd" stroke="#f5f5f5" stroke-miterlimit="10" stroke-width=".3985"/><text transform="scale(1,-1)" x="280.39099" y="-184.189" fill="#f5f5f5" font-family="'Noto Sans'" font-size="9.9626px" style="font-feature-settings:normal;font-variant-caps:normal;font-variant-ligatures:normal;font-variant-numeric:normal"><tspan x="280.39099" y="-184.189">...</tspan></text>
<path d="m400.62 199.78h-69.538c-2.2009 0-3.9851-1.7842-3.9851-3.9851v-21.918c0-2.2009 1.7842-3.9851 3.9851-3.9851h69.538c2.2009 0 3.9851 1.7842 3.9851 3.9851v21.918c0 2.2009-1.7842 3.9851-3.9851 3.9851z" fill="#7c9ccd" stroke="#f5f5f5" stroke-miterlimit="10" stroke-width=".3985"/><text transform="scale(1,-1)" x="361.285" y="-184.189" fill="#f5f5f5" font-family="'Noto Sans'" font-size="9.9626px" style="font-feature-settings:normal;font-variant-caps:normal;font-variant-ligatures:normal;font-variant-numeric:normal"><tspan x="361.285" y="-184.189">...</tspan></text>
<text transform="scale(1,-1)" x="361.285" y="-150.914" fill="#f5f5f5" font-family="'Noto Sans'" font-size="9.9626px" style="font-feature-settings:normal;font-variant-caps:normal;font-variant-ligatures:normal;font-variant-numeric:normal"><tspan x="361.285" y="-150.914">...</tspan></text>
<path d="m319.73 66.683h-69.538c-2.2009 0-3.9851-1.7842-3.9851-3.9851v-21.918c0-2.2009 1.7842-3.9851 3.9851-3.9851h69.538c2.2009 0 3.9851 1.7842 3.9851 3.9851v21.918c0 2.2009-1.7842 3.9851-3.9851 3.9851z" fill="#204880" stroke="#f5f5f5" stroke-miterlimit="10" stroke-width=".3985"/><text transform="scale(1,-1)" x="266.31799" y="-49.248001" fill="#f5f5f5" font-family="'Noto Sans'" font-size="9.9626px" style="font-feature-settings:normal;font-variant-caps:normal;font-variant-ligatures:normal;font-variant-numeric:normal"><tspan x="266.31799" y="-49.248001">OpenCL</tspan></text>
<path d="m400.62 66.683h-69.538c-2.2009 0-3.9851-1.7842-3.9851-3.9851v-21.918c0-2.2009 1.7842-3.9851 3.9851-3.9851h69.538c2.2009 0 3.9851 1.7842 3.9851 3.9851v21.918c0 2.2009-1.7842 3.9851-3.9851 3.9851z" fill="#204880" stroke="#f5f5f5" stroke-miterlimit="10" stroke-width=".3985"/><text transform="scale(1,-1)" x="351.08701" y="-48.279999" fill="#f5f5f5" font-family="'Noto Sans'" font-size="9.9626px" style="font-feature-settings:normal;font-variant-caps:normal;font-variant-ligatures:normal;font-variant-numeric:normal"><tspan x="351.08701" y="-48.279999">CUDA</tspan></text>
<path d="m77.042 33.408h-69.538c-2.2009 0-3.9851-1.7842-3.9851-3.9851v-21.918c0-2.2009 1.7842-3.9851 3.9851-3.9851h69.538c2.2009 0 3.9851 1.7842 3.9851 3.9851v21.918c0 2.2009-1.7842 3.9851-3.9851 3.9851z" fill="#204880" stroke="#f5f5f5" stroke-miterlimit="10" stroke-width=".3985"/><text transform="scale(1,-1)" x="26.138996" y="-15.004997" fill="#f5f5f5" font-family="'Noto Sans'" font-size="9.9626px" style="font-feature-settings:normal;font-variant-caps:normal;font-variant-ligatures:normal;font-variant-numeric:normal"><tspan x="26.138996" y="-15.004997">NVVM</tspan></text>
<path d="m157.94 33.408h-69.538c-2.2009 0-3.9851-1.7842-3.9851-3.9851v-21.918c0-2.2009 1.7842-3.9851 3.9851-3.9851h69.538c2.2009 0 3.9851 1.7842 3.9851 3.9851v21.918c0 2.2009-1.7842 3.9851-3.9851 3.9851z" fill="#204880" stroke="#f5f5f5" stroke-miterlimit="10" stroke-width=".3985"/><text transform="scale(1,-1)" x="108.272" y="-15.004997" fill="#f5f5f5" font-family="'Noto Sans'" font-size="9.9626px" style="font-feature-settings:normal;font-variant-caps:normal;font-variant-ligatures:normal;font-variant-numeric:normal"><tspan x="108.272" y="-15.004997">Native</tspan></text>
<path d="m238.83 33.408h-69.538c-2.2009 0-3.9851-1.7842-3.9851-3.9851v-21.918c0-2.2009 1.7842-3.9851 3.9851-3.9851h69.538c2.2009 0 3.9851 1.7842 3.9851 3.9851v21.918c0 2.2009-1.7842 3.9851-3.9851 3.9851z" fill="#204880" stroke="#f5f5f5" stroke-miterlimit="10" stroke-width=".3985"/><text transform="scale(1,-1)" x="180.62199" y="-15.004997" fill="#f5f5f5" font-family="'Noto Sans'" font-size="9.9626px" style="font-feature-settings:normal;font-variant-caps:normal;font-variant-ligatures:normal;font-variant-numeric:normal"><tspan x="180.62199" y="-15.004997">AMDGPU</tspan></text>
<path d="m238.83 166.51h-231.33c-2.201 0-3.9851-1.7842-3.9851-3.9851v-21.918c0-2.2009 1.7842-3.9851 3.9851-3.9851h231.33c2.2009 0 3.9851 1.7842 3.9851 3.9851v21.918c0 2.2009-1.7842 3.9851-3.9851 3.9851z" fill="#7c9ccd" stroke="#f5f5f5" stroke-miterlimit="10" stroke-width=".3985"/><text transform="scale(1,-1)" x="73.735001" y="-148.105" fill="#f5f5f5" font-family="'Noto Sans'" font-size="9.9626px" style="font-feature-settings:normal;font-variant-caps:normal;font-variant-ligatures:normal;font-variant-numeric:normal"><tspan x="73.735001" y="-148.105">Parallel Runtime DSL</tspan></text>
<path d="m400.62 166.51h-150.43c-2.201 0-3.9851-1.7842-3.9851-3.9851v-21.918c0-2.2009 1.7842-3.9851 3.9851-3.9851h150.43c2.201 0 3.9851 1.7842 3.9851 3.9851v21.918c0 2.2009-1.7842 3.9851-3.9851 3.9851z" fill="#7c9ccd" stroke="#f5f5f5" stroke-miterlimit="10" stroke-width=".3985"/><text transform="scale(1,-1)" x="275.69" y="-149.07401" fill="#f5f5f5" font-family="'Noto Sans'" font-size="9.9626px" style="font-feature-settings:normal;font-variant-caps:normal;font-variant-ligatures:normal;font-variant-numeric:normal"><tspan x="275.69" y="-149.07401">More layered DSLs...</tspan></text>
<path d="m400.62 133.23h-393.12c-2.201 0-3.9851-1.7842-3.9851-3.9851v-21.918c0-2.2009 1.7842-3.9851 3.9851-3.9851h393.12c2.201 0 3.9851 1.7842 3.9851 3.9851v21.918c0 2.2009-1.7842 3.9851-3.9851 3.9851z" fill="#7c9ccd" stroke="#f5f5f5" stroke-miterlimit="10" stroke-width=".3985"/><text transform="scale(1,-1)" x="135.14" y="-115.799" fill="#f5f5f5" font-family="'Noto Sans'" font-size="9.9626px" style="font-feature-settings:normal;font-variant-caps:normal;font-variant-ligatures:normal;font-variant-numeric:normal"><tspan x="135.14" y="-115.799">Impala programming language</tspan></text>
<path d="m400.62 99.958h-393.12c-2.201 0-3.9851-1.7842-3.9851-3.9851v-21.918c0-2.2009 1.7842-3.9851 3.9851-3.9851h393.12c2.201 0 3.9851 1.7842 3.9851 3.9851v21.918c0 2.2009-1.7842 3.9851-3.9851 3.9851z" fill="#0055c9" stroke="#f5f5f5" stroke-miterlimit="10" stroke-width=".3985"/><text transform="scale(1,-1)" x="108.393" y="-82.524002" fill="#f5f5f5" font-family="'Noto Sans'" font-size="9.9626px" style="font-feature-settings:normal;font-variant-caps:normal;font-variant-ligatures:normal;font-variant-numeric:normal"><tspan x="108.393" y="-82.524002">AnyDSL Compiler Framework (ThorinIR)</tspan></text>
<path d="m238.83 66.683h-231.33c-2.201 0-3.9851-1.7842-3.9851-3.9851v-21.918c0-2.2009 1.7842-3.9851 3.9851-3.9851h231.33c2.2009 0 3.9851 1.7842 3.9851 3.9851v21.918c0 2.2009-1.7842 3.9851-3.9851 3.9851z" fill="#204880" stroke="#f5f5f5" stroke-miterlimit="10" stroke-width=".3985"/><text transform="scale(1,-1)" x="55.621998" y="-49.248001" fill="#f5f5f5" font-family="'Noto Sans'" font-size="9.9626px" style="font-feature-settings:normal;font-variant-caps:normal;font-variant-ligatures:normal;font-variant-numeric:normal"><tspan x="55.621998" y="-49.248001">LLVM with Region Vectorizer</tspan></text>
</g></svg>
