<?xml version="1.0" encoding="utf-8"?>
<!-- Generator: Adobe Illustrator 16.0.3, SVG Export Plug-In . SVG Version: 6.00 Build 0)  -->
<!DOCTYPE svg PUBLIC "-//W3C//DTD SVG 1.1//EN" "http://www.w3.org/Graphics/SVG/1.1/DTD/svg11.dtd">
<svg version="1.1" id="Ebene_1" xmlns="http://www.w3.org/2000/svg" xmlns:xlink="http://www.w3.org/1999/xlink" x="0px" y="0px"
	 width="586.209px" height="135.453px" viewBox="0 0 586.209 135.453" enable-background="new 0 0 586.209 135.453"
	 xml:space="preserve">
<g>
	<g>
		<defs>
			<rect id="SVGID_1_" x="195.491" y="-0.027" width="133.221" height="135.513"/>
		</defs>
		<clipPath id="SVGID_2_">
			<use xlink:href="#SVGID_1_"  overflow="visible"/>
		</clipPath>
		
			<linearGradient id="SVGID_3_" gradientUnits="userSpaceOnUse" x1="-109.3723" y1="80.9883" x2="-108.3718" y2="80.9883" gradientTransform="matrix(144.4141 0 0 -144.4141 15990.4082 11763.5898)">
			<stop  offset="0" style="stop-color:#FFFFFF"/>
			<stop  offset="0.0832" style="stop-color:#F5F6FC"/>
			<stop  offset="0.2346" style="stop-color:#D8DFF2"/>
			<stop  offset="0.4368" style="stop-color:#A9BAE1"/>
			<stop  offset="0.6792" style="stop-color:#618BC8"/>
			<stop  offset="0.9212" style="stop-color:#0060AC"/>
			<stop  offset="1" style="stop-color:#0060AC"/>
		</linearGradient>
		<rect x="195.491" y="-0.027" clip-path="url(#SVGID_2_)" fill="url(#SVGID_3_)" width="133.221" height="135.513"/>
	</g>
</g>
<g>
	<g>
		<defs>
			<polygon id="SVGID_4_" points="125.742,-0.027 125.742,135.439 296.266,135.439 217.26,57.479 276.523,-0.027 			"/>
		</defs>
		<clipPath id="SVGID_5_">
			<use xlink:href="#SVGID_4_"  overflow="visible"/>
		</clipPath>
		
			<linearGradient id="SVGID_6_" gradientUnits="userSpaceOnUse" x1="-109.4167" y1="81.1387" x2="-108.4167" y2="81.1387" gradientTransform="matrix(170.5229 0 0 -170.5229 18783.8242 13903.9688)">
			<stop  offset="0" style="stop-color:#FFFFFF"/>
			<stop  offset="0.0471" style="stop-color:#F0F2FA"/>
			<stop  offset="0.2384" style="stop-color:#B3C1E4"/>
			<stop  offset="0.4196" style="stop-color:#7C9BD1"/>
			<stop  offset="0.5854" style="stop-color:#4A7FC1"/>
			<stop  offset="0.7328" style="stop-color:#186DB6"/>
			<stop  offset="0.8563" style="stop-color:#0064AF"/>
			<stop  offset="0.9409" style="stop-color:#0060AC"/>
			<stop  offset="1" style="stop-color:#0060AC"/>
		</linearGradient>
		<rect x="125.742" y="-0.027" clip-path="url(#SVGID_5_)" fill="url(#SVGID_6_)" width="170.522" height="135.466"/>
	</g>
</g>
<g>
	<g>
		<defs>
			<polygon id="SVGID_7_" points="0,-0.031 0,135.439 150.305,135.439 150.305,88.801 185.167,88.801 185.166,57.176 
				150.305,57.176 150.305,34.434 204.152,34.434 204.152,-0.031 			"/>
		</defs>
		<clipPath id="SVGID_8_">
			<use xlink:href="#SVGID_7_"  overflow="visible"/>
		</clipPath>
		
			<linearGradient id="SVGID_9_" gradientUnits="userSpaceOnUse" x1="-109.4587" y1="81.2793" x2="-108.4587" y2="81.2793" gradientTransform="matrix(204.1518 0 0 -204.1518 22346.1523 16661.0078)">
			<stop  offset="0" style="stop-color:#FFFFFF"/>
			<stop  offset="0.266" style="stop-color:#FFFFFF"/>
			<stop  offset="0.5025" style="stop-color:#AFBFE3"/>
			<stop  offset="0.7389" style="stop-color:#5A88C6"/>
			<stop  offset="0.9045" style="stop-color:#016AB3"/>
			<stop  offset="0.9852" style="stop-color:#0060AC"/>
			<stop  offset="1" style="stop-color:#0060AC"/>
		</linearGradient>
		<rect x="0" y="-0.031" clip-path="url(#SVGID_8_)" fill="url(#SVGID_9_)" width="204.151" height="135.47"/>
	</g>
</g>
<g>
	<g>
		<defs>
			<path id="SVGID_10_" d="M58.619-0.025v-0.008H0v135.459h59.226c31.294-0.182,56.607-30.467,56.607-67.752
				c0-37.393-25.474-67.707-56.896-67.707C58.83-0.033,58.725-0.025,58.619-0.025"/>
		</defs>
		<clipPath id="SVGID_11_">
			<use xlink:href="#SVGID_10_"  overflow="visible"/>
		</clipPath>
		
			<linearGradient id="SVGID_12_" gradientUnits="userSpaceOnUse" x1="-109.2996" y1="80.7422" x2="-108.2996" y2="80.7422" gradientTransform="matrix(115.833 0 0 -115.833 12660.5107 9420.3281)">
			<stop  offset="0" style="stop-color:#9AAFDB"/>
			<stop  offset="0.1366" style="stop-color:#92A9D8"/>
			<stop  offset="0.3607" style="stop-color:#7999CF"/>
			<stop  offset="0.6445" style="stop-color:#4C80C1"/>
			<stop  offset="0.9741" style="stop-color:#0063AE"/>
			<stop  offset="1" style="stop-color:#0060AC"/>
		</linearGradient>
		<rect x="0" y="-0.033" clip-path="url(#SVGID_11_)" fill="url(#SVGID_12_)" width="115.833" height="135.459"/>
	</g>
</g>
<g>
	<path d="M359.554,19.959V16.34h9.346v8.555c-0.907,0.879-2.225,1.652-3.948,2.322c-1.724,0.668-3.469,1.004-5.235,1.004
		c-2.246,0-4.204-0.473-5.874-1.414c-1.67-0.943-2.925-2.291-3.766-4.043c-0.84-1.754-1.26-3.66-1.26-5.721
		c0-2.236,0.47-4.223,1.406-5.961c0.938-1.738,2.311-3.072,4.116-4c1.377-0.713,3.091-1.068,5.142-1.068
		c2.666,0,4.748,0.559,6.247,1.676c1.499,1.119,2.464,2.664,2.895,4.637l-4.308,0.807c-0.303-1.055-0.872-1.889-1.707-2.498
		c-0.835-0.611-1.877-0.916-3.127-0.916c-1.895,0-3.4,0.602-4.52,1.801c-1.118,1.203-1.677,2.984-1.677,5.348
		c0,2.549,0.565,4.461,1.698,5.734c1.133,1.275,2.617,1.912,4.453,1.912c0.908,0,1.818-0.178,2.731-0.535
		c0.913-0.355,1.696-0.787,2.352-1.295V19.96L359.554,19.959L359.554,19.959z"/>
	<path d="M381.878,22.902l4.102,0.689c-0.526,1.504-1.359,2.648-2.498,3.434c-1.138,0.787-2.561,1.18-4.27,1.18
		c-2.705,0-4.707-0.883-6.006-2.65c-1.025-1.416-1.538-3.203-1.538-5.361c0-2.578,0.673-4.598,2.021-6.059
		c1.349-1.459,3.053-2.189,5.112-2.189c2.313,0,4.141,0.764,5.479,2.293c1.339,1.527,1.979,3.869,1.92,7.023h-10.313
		c0.029,1.221,0.361,2.17,0.997,2.85c0.634,0.678,1.425,1.018,2.372,1.018c0.645,0,1.187-0.176,1.626-0.527
		C381.32,24.252,381.653,23.684,381.878,22.902 M382.112,18.742c-0.028-1.191-0.337-2.098-0.923-2.717
		c-0.586-0.621-1.299-0.93-2.14-0.93c-0.897,0-1.64,0.326-2.227,0.98c-0.586,0.654-0.874,1.543-0.863,2.666L382.112,18.742
		L382.112,18.742z"/>
	<path d="M393.494,27.854h-4.116V12.297h3.823v2.213c0.653-1.045,1.241-1.734,1.765-2.066c0.522-0.332,1.115-0.498,1.779-0.498
		c0.938,0,1.842,0.26,2.71,0.777l-1.274,3.588c-0.692-0.449-1.337-0.674-1.934-0.674c-0.575,0-1.064,0.158-1.464,0.477
		c-0.4,0.316-0.717,0.891-0.945,1.721c-0.229,0.83-0.344,2.568-0.344,5.215V27.854z"/>
	<path d="M400.921,12.297h3.794v2.125c1.356-1.65,2.974-2.477,4.849-2.477c0.996,0,1.86,0.207,2.593,0.615
		c0.732,0.41,1.333,1.031,1.803,1.861c0.684-0.83,1.421-1.451,2.212-1.861c0.791-0.408,1.636-0.615,2.533-0.615
		c1.144,0,2.109,0.232,2.9,0.695c0.791,0.465,1.382,1.146,1.772,2.045c0.282,0.664,0.425,1.738,0.425,3.223v9.945h-4.116v-8.891
		c0-1.543-0.142-2.539-0.425-2.988c-0.381-0.586-0.967-0.879-1.758-0.879c-0.576,0-1.118,0.176-1.626,0.527
		c-0.509,0.351-0.874,0.865-1.1,1.545c-0.225,0.678-0.336,1.75-0.336,3.215v7.471h-4.117v-8.525c0-1.514-0.072-2.49-0.22-2.93
		s-0.374-0.766-0.682-0.98c-0.309-0.214-0.726-0.322-1.252-0.322c-0.636,0-1.206,0.17-1.715,0.512
		c-0.508,0.342-0.872,0.836-1.092,1.48s-0.329,1.713-0.329,3.207v7.559h-4.115L400.921,12.297L400.921,12.297z"/>
	<path d="M430.979,17.043l-3.735-0.674c0.42-1.504,1.144-2.617,2.168-3.34c1.025-0.723,2.55-1.084,4.57-1.084
		c1.836,0,3.203,0.217,4.103,0.652c0.897,0.434,1.529,0.986,1.896,1.654c0.366,0.67,0.55,1.898,0.55,3.686l-0.044,4.805
		c0,1.367,0.065,2.375,0.197,3.023c0.132,0.65,0.379,1.346,0.74,2.088h-4.072c-0.107-0.273-0.239-0.678-0.396-1.215
		c-0.067-0.244-0.116-0.406-0.146-0.484c-0.703,0.684-1.455,1.197-2.256,1.539c-0.801,0.342-1.655,0.512-2.563,0.512
		c-1.602,0-2.864-0.434-3.787-1.303c-0.923-0.869-1.384-1.969-1.384-3.297c0-0.879,0.21-1.662,0.63-2.352
		c0.42-0.688,1.008-1.215,1.766-1.582c0.757-0.365,1.849-0.686,3.273-0.959c1.924-0.361,3.257-0.697,3.999-1.01v-0.41
		c0-0.791-0.195-1.355-0.586-1.693c-0.391-0.336-1.128-0.504-2.212-0.504c-0.732,0-1.304,0.143-1.714,0.432
		C431.565,15.814,431.233,16.32,430.979,17.043 M436.487,20.383c-0.526,0.176-1.361,0.387-2.505,0.631
		c-1.143,0.244-1.89,0.482-2.241,0.717c-0.537,0.381-0.806,0.865-0.806,1.451c0,0.576,0.215,1.074,0.645,1.494
		c0.43,0.42,0.978,0.629,1.642,0.629c0.742,0,1.45-0.244,2.124-0.732c0.498-0.371,0.825-0.824,0.98-1.361
		c0.107-0.352,0.161-1.021,0.161-2.008V20.383L436.487,20.383z"/>
	<path d="M458.738,27.854h-4.116v-7.939c0-1.68-0.088-2.766-0.264-3.26c-0.176-0.492-0.462-0.875-0.856-1.148
		c-0.396-0.273-0.871-0.41-1.429-0.41c-0.713,0-1.353,0.195-1.919,0.586c-0.565,0.391-0.955,0.908-1.165,1.553
		s-0.313,1.836-0.313,3.574v7.045h-4.116V12.297h3.823v2.285c1.356-1.758,3.065-2.637,5.128-2.637c0.906,0,1.736,0.164,2.488,0.49
		c0.753,0.328,1.32,0.746,1.706,1.254c0.387,0.508,0.654,1.084,0.807,1.727c0.15,0.646,0.228,1.568,0.228,2.77L458.738,27.854
		L458.738,27.854z"/>
	<path d="M349.578,61.354V39.879h9.126c2.295,0,3.962,0.193,5.002,0.578c1.04,0.387,1.873,1.072,2.498,2.059
		c0.625,0.987,0.938,2.115,0.938,3.383c0,1.613-0.474,2.943-1.421,3.992c-0.947,1.049-2.363,1.713-4.248,1.986
		c0.938,0.547,1.712,1.146,2.321,1.801c0.609,0.654,1.434,1.816,2.469,3.486l2.622,4.189h-5.186l-3.136-4.672
		c-1.112-1.67-1.875-2.723-2.285-3.158c-0.409-0.434-0.844-0.732-1.304-0.893c-0.459-0.162-1.187-0.242-2.183-0.242h-0.879v8.965
		L349.578,61.354L349.578,61.354z M353.914,48.961h3.208c2.08,0,3.379-0.088,3.896-0.264c0.518-0.176,0.923-0.479,1.216-0.908
		s0.439-0.967,0.439-1.611c0-0.723-0.193-1.307-0.579-1.75c-0.386-0.445-0.93-0.725-1.633-0.842
		c-0.353-0.049-1.406-0.074-3.164-0.074h-3.384L353.914,48.961L353.914,48.961z"/>
	<path d="M380.208,56.402l4.102,0.689c-0.526,1.504-1.359,2.648-2.498,3.434c-1.138,0.787-2.561,1.18-4.27,1.18
		c-2.705,0-4.707-0.883-6.006-2.65c-1.025-1.416-1.538-3.203-1.538-5.361c0-2.578,0.673-4.598,2.021-6.059
		c1.349-1.459,3.052-2.189,5.112-2.189c2.313,0,4.141,0.764,5.479,2.293c1.339,1.527,1.979,3.869,1.919,7.023h-10.313
		c0.029,1.221,0.361,2.17,0.997,2.85c0.634,0.678,1.425,1.018,2.372,1.018c0.645,0,1.187-0.176,1.626-0.527
		C379.65,57.752,379.983,57.184,380.208,56.402 M380.442,52.242c-0.028-1.191-0.337-2.098-0.923-2.717
		c-0.586-0.621-1.299-0.93-2.139-0.93c-0.898,0-1.642,0.326-2.228,0.98c-0.586,0.654-0.874,1.543-0.863,2.666L380.442,52.242
		L380.442,52.242z"/>
	<path d="M386.434,56.916l4.131-0.631c0.177,0.801,0.532,1.408,1.069,1.824c0.537,0.414,1.289,0.623,2.256,0.623
		c1.064,0,1.865-0.195,2.402-0.588c0.36-0.271,0.542-0.639,0.542-1.098c0-0.313-0.099-0.57-0.293-0.777
		c-0.205-0.193-0.664-0.375-1.378-0.541c-3.319-0.732-5.425-1.4-6.313-2.006c-1.229-0.84-1.846-2.008-1.846-3.502
		c0-1.348,0.532-2.48,1.597-3.398c1.065-0.918,2.715-1.377,4.951-1.377c2.129,0,3.711,0.348,4.746,1.041
		c1.034,0.693,1.748,1.719,2.139,3.074l-3.882,0.719c-0.166-0.605-0.481-1.068-0.945-1.391c-0.464-0.323-1.125-0.484-1.983-0.484
		c-1.084,0-1.86,0.152-2.329,0.455c-0.313,0.215-0.469,0.492-0.469,0.834c0,0.293,0.137,0.543,0.409,0.748
		c0.371,0.273,1.652,0.658,3.846,1.156c2.192,0.498,3.724,1.109,4.593,1.832c0.858,0.732,1.289,1.752,1.289,3.061
		c0,1.426-0.597,2.652-1.787,3.678c-1.191,1.026-2.954,1.537-5.288,1.537c-2.119,0-3.797-0.43-5.032-1.289
		C387.623,59.557,386.814,58.391,386.434,56.916"/>
	<path d="M413.576,56.402l4.103,0.689c-0.527,1.504-1.36,2.648-2.498,3.434c-1.14,0.787-2.562,1.18-4.271,1.18
		c-2.705,0-4.707-0.883-6.006-2.65c-1.024-1.416-1.538-3.203-1.538-5.361c0-2.578,0.673-4.598,2.021-6.059
		c1.348-1.459,3.052-2.189,5.112-2.189c2.313,0,4.141,0.764,5.479,2.293c1.338,1.527,1.978,3.869,1.919,7.023h-10.313
		c0.028,1.221,0.36,2.17,0.995,2.85c0.636,0.678,1.427,1.018,2.373,1.018c0.646,0,1.188-0.176,1.626-0.527
		C413.019,57.752,413.353,57.184,413.576,56.402 M413.812,52.242c-0.029-1.191-0.337-2.098-0.923-2.717
		c-0.586-0.621-1.299-0.93-2.141-0.93c-0.896,0-1.64,0.326-2.226,0.98c-0.586,0.654-0.874,1.543-0.864,2.666L413.812,52.242
		L413.812,52.242z"/>
	<path d="M424.328,50.543l-3.734-0.674c0.42-1.504,1.143-2.617,2.168-3.34c1.024-0.723,2.549-1.084,4.57-1.084
		c1.836,0,3.202,0.217,4.102,0.652c0.898,0.434,1.53,0.986,1.896,1.654c0.366,0.67,0.551,1.898,0.551,3.686l-0.044,4.805
		c0,1.367,0.064,2.375,0.196,3.023c0.132,0.65,0.379,1.346,0.74,2.088H430.7c-0.106-0.273-0.238-0.678-0.396-1.215
		c-0.068-0.244-0.117-0.406-0.146-0.484c-0.703,0.684-1.455,1.197-2.256,1.539c-0.801,0.342-1.655,0.512-2.563,0.512
		c-1.603,0-2.864-0.434-3.787-1.303c-0.923-0.869-1.384-1.969-1.384-3.297c0-0.879,0.21-1.662,0.63-2.352
		c0.42-0.688,1.008-1.215,1.765-1.582c0.757-0.365,1.849-0.686,3.274-0.959c1.924-0.361,3.257-0.697,3.999-1.01v-0.41
		c0-0.791-0.195-1.355-0.586-1.693c-0.392-0.336-1.129-0.504-2.213-0.504c-0.731,0-1.304,0.143-1.714,0.432
		C424.914,49.314,424.582,49.82,424.328,50.543 M429.837,53.883c-0.527,0.176-1.362,0.387-2.506,0.631
		c-1.143,0.244-1.89,0.482-2.24,0.717c-0.537,0.381-0.807,0.865-0.807,1.451c0,0.576,0.216,1.074,0.646,1.494
		c0.429,0.42,0.977,0.629,1.641,0.629c0.742,0,1.45-0.244,2.124-0.732c0.498-0.371,0.825-0.824,0.981-1.361
		c0.106-0.352,0.161-1.021,0.161-2.008V53.883L429.837,53.883z"/>
	<path d="M441.878,61.354h-4.116V45.797h3.823v2.213c0.653-1.045,1.241-1.734,1.765-2.066c0.522-0.332,1.116-0.498,1.78-0.498
		c0.938,0,1.841,0.26,2.71,0.777l-1.275,3.588c-0.692-0.449-1.337-0.674-1.933-0.674c-0.576,0-1.064,0.158-1.466,0.477
		c-0.399,0.316-0.716,0.891-0.944,1.721c-0.229,0.83-0.344,2.568-0.344,5.215V61.354z"/>
	<path d="M463.177,50.396l-4.059,0.732c-0.137-0.811-0.446-1.42-0.931-1.83c-0.484-0.41-1.11-0.615-1.882-0.615
		c-1.026,0-1.844,0.354-2.454,1.061c-0.611,0.709-0.915,1.893-0.915,3.553c0,1.846,0.31,3.15,0.929,3.912
		c0.621,0.762,1.454,1.143,2.498,1.143c0.782,0,1.422-0.223,1.92-0.668c0.497-0.443,0.851-1.207,1.056-2.291l4.043,0.688
		c-0.42,1.855-1.228,3.258-2.417,4.205c-1.191,0.947-2.788,1.42-4.79,1.42c-2.275,0-4.091-0.717-5.442-2.152
		c-1.352-1.435-2.028-3.424-2.028-5.963c0-2.568,0.68-4.568,2.035-5.998c1.358-1.432,3.194-2.146,5.509-2.146
		c1.896,0,3.4,0.408,4.52,1.223C461.885,47.484,462.688,48.727,463.177,50.396"/>
	<path d="M470.398,39.879v7.896c1.328-1.553,2.915-2.33,4.761-2.33c0.947,0,1.802,0.176,2.563,0.527
		c0.762,0.352,1.335,0.801,1.722,1.348c0.385,0.547,0.648,1.152,0.791,1.816c0.141,0.664,0.212,1.695,0.212,3.092v9.125h-4.116
		v-8.217c0-1.631-0.078-2.666-0.233-3.105c-0.156-0.439-0.433-0.789-0.828-1.049c-0.396-0.258-0.892-0.387-1.486-0.387
		c-0.684,0-1.294,0.166-1.831,0.498c-0.537,0.332-0.931,0.832-1.18,1.5c-0.249,0.67-0.373,1.658-0.373,2.967v7.793h-4.116V39.879
		H470.398z"/>
	<path d="M506.727,53.459l4.204,1.332c-0.646,2.344-1.717,4.084-3.215,5.223c-1.5,1.137-3.401,1.707-5.706,1.707
		c-2.853,0-5.195-0.975-7.031-2.924c-1.836-1.947-2.754-4.611-2.754-7.99c0-3.574,0.923-6.35,2.769-8.328
		c1.847-1.977,4.272-2.965,7.28-2.965c2.627,0,4.761,0.775,6.401,2.328c0.977,0.918,1.709,2.236,2.198,3.955l-4.293,1.025
		c-0.255-1.113-0.784-1.992-1.59-2.637c-0.807-0.645-1.785-0.967-2.938-0.967c-1.592,0-2.884,0.572-3.875,1.715
		s-1.486,2.992-1.486,5.551c0,2.715,0.488,4.648,1.465,5.801c0.978,1.153,2.246,1.729,3.81,1.729c1.151,0,2.144-0.365,2.974-1.098
		S506.365,55.031,506.727,53.459"/>
	<path d="M523.631,56.402l4.102,0.689c-0.527,1.504-1.36,2.648-2.498,3.434c-1.138,0.787-2.561,1.18-4.27,1.18
		c-2.705,0-4.707-0.883-6.006-2.65c-1.025-1.416-1.538-3.203-1.538-5.361c0-2.578,0.673-4.598,2.021-6.059
		c1.348-1.459,3.052-2.189,5.111-2.189c2.314,0,4.142,0.764,5.479,2.293c1.338,1.527,1.979,3.869,1.919,7.023H517.64
		c0.029,1.221,0.361,2.17,0.996,2.85c0.635,0.678,1.426,1.018,2.373,1.018c0.645,0,1.187-0.176,1.626-0.527
		C523.073,57.752,523.406,57.184,523.631,56.402 M523.865,52.242c-0.028-1.191-0.337-2.098-0.923-2.717
		c-0.586-0.621-1.299-0.93-2.139-0.93c-0.898,0-1.642,0.326-2.228,0.98c-0.586,0.654-0.874,1.543-0.863,2.666L523.865,52.242
		L523.865,52.242z"/>
	<path d="M545.456,61.354h-4.115v-7.939c0-1.68-0.089-2.766-0.265-3.26c-0.176-0.492-0.461-0.875-0.856-1.148
		s-0.871-0.41-1.429-0.41c-0.713,0-1.353,0.195-1.919,0.586c-0.565,0.391-0.954,0.908-1.165,1.553
		c-0.209,0.645-0.313,1.836-0.313,3.574v7.045h-4.116V45.797h3.823v2.285c1.356-1.758,3.065-2.637,5.127-2.637
		c0.908,0,1.738,0.164,2.49,0.49c0.752,0.328,1.319,0.746,1.707,1.254c0.385,0.508,0.652,1.084,0.805,1.727
		c0.151,0.646,0.228,1.568,0.228,2.77L545.456,61.354L545.456,61.354z"/>
	<path d="M556.766,45.797v3.281h-2.813v6.27c0,1.27,0.027,2.01,0.081,2.219c0.055,0.211,0.177,0.385,0.367,0.521
		c0.189,0.137,0.422,0.205,0.695,0.205c0.381,0,0.933-0.133,1.655-0.396l0.352,3.193c-0.957,0.41-2.041,0.615-3.252,0.615
		c-0.742,0-1.411-0.125-2.007-0.373c-0.597-0.25-1.033-0.572-1.312-0.967s-0.472-0.93-0.579-1.604
		c-0.088-0.479-0.132-1.445-0.132-2.9v-6.783h-1.89v-3.281h1.89v-3.09l4.13-2.402v5.492H556.766z"/>
	<path d="M568.631,56.402l4.102,0.689c-0.527,1.504-1.36,2.648-2.498,3.434c-1.138,0.787-2.561,1.18-4.27,1.18
		c-2.705,0-4.707-0.883-6.006-2.65c-1.025-1.416-1.538-3.203-1.538-5.361c0-2.578,0.673-4.598,2.021-6.059
		c1.348-1.459,3.052-2.189,5.111-2.189c2.314,0,4.142,0.764,5.479,2.293c1.338,1.527,1.979,3.869,1.919,7.023H562.64
		c0.029,1.221,0.361,2.17,0.996,2.85c0.635,0.678,1.426,1.018,2.373,1.018c0.645,0,1.187-0.176,1.626-0.527
		C568.073,57.752,568.406,57.184,568.631,56.402 M568.865,52.242c-0.028-1.191-0.337-2.098-0.923-2.717
		c-0.586-0.621-1.299-0.93-2.139-0.93c-0.898,0-1.642,0.326-2.228,0.98c-0.586,0.654-0.874,1.543-0.863,2.666L568.865,52.242
		L568.865,52.242z"/>
	<path d="M580.246,61.354h-4.115V45.797h3.822v2.213c0.654-1.045,1.242-1.734,1.767-2.066c0.521-0.332,1.114-0.498,1.778-0.498
		c0.938,0,1.842,0.26,2.711,0.777l-1.274,3.588c-0.693-0.449-1.338-0.674-1.935-0.674c-0.575,0-1.063,0.158-1.465,0.477
		c-0.399,0.316-0.716,0.891-0.944,1.721c-0.229,0.83-0.345,2.568-0.345,5.215V61.354L580.246,61.354z"/>
	<path d="M347.732,79.297h2.285v-1.172c0-1.307,0.139-2.285,0.417-2.93c0.277-0.646,0.791-1.168,1.538-1.574
		s1.692-0.607,2.835-0.607c1.172,0,2.319,0.176,3.442,0.527l-0.558,2.871c-0.653-0.156-1.284-0.234-1.89-0.234
		c-0.596,0-1.023,0.139-1.282,0.416c-0.259,0.279-0.388,0.814-0.388,1.605v1.098h3.076v3.238h-3.076v12.318h-4.116V82.535h-2.285
		L347.732,79.297L347.732,79.297z"/>
	<path d="M358.572,86.855c0-1.367,0.338-2.689,1.012-3.969c0.674-1.281,1.628-2.257,2.862-2.931c1.235-0.675,2.615-1.013,4.14-1.013
		c2.354,0,4.282,0.765,5.786,2.293c1.504,1.527,2.256,3.459,2.256,5.793c0,2.355-0.76,4.306-2.278,5.853
		c-1.519,1.55-3.43,2.322-5.734,2.322c-1.426,0-2.785-0.322-4.079-0.968c-1.294-0.645-2.277-1.59-2.951-2.834
		C358.909,90.158,358.572,88.643,358.572,86.855 M362.791,87.076c0,1.543,0.365,2.725,1.099,3.545s1.636,1.23,2.71,1.23
		s1.976-0.41,2.702-1.23s1.092-2.012,1.092-3.574c0-1.523-0.364-2.695-1.092-3.516c-0.729-0.821-1.628-1.23-2.702-1.23
		s-1.978,0.41-2.71,1.23C363.158,84.352,362.791,85.533,362.791,87.076"/>
	<path d="M381.79,94.854h-4.116V79.297h3.823v2.213c0.653-1.045,1.241-1.734,1.765-2.066s1.116-0.498,1.78-0.498
		c0.938,0,1.841,0.261,2.71,0.777l-1.275,3.588c-0.691-0.449-1.337-0.674-1.933-0.674c-0.576,0-1.064,0.158-1.465,0.477
		c-0.4,0.316-0.717,0.892-0.945,1.722c-0.229,0.83-0.344,2.567-0.344,5.215V94.854z"/>
	<path d="M416.141,94.854h-4.717l-1.875-4.877h-8.584l-1.772,4.877h-4.6l8.363-21.475h4.585L416.141,94.854z M408.156,86.357
		l-2.959-7.969l-2.899,7.969H408.156z"/>
	<path d="M422.352,94.854h-4.116V79.297h3.823v2.213c0.654-1.045,1.242-1.734,1.765-2.066c0.523-0.332,1.116-0.498,1.78-0.498
		c0.938,0,1.841,0.261,2.71,0.777l-1.275,3.588c-0.691-0.449-1.337-0.674-1.933-0.674c-0.576,0-1.064,0.158-1.465,0.477
		c-0.4,0.316-0.716,0.892-0.945,1.722c-0.229,0.83-0.344,2.567-0.344,5.215V94.854z"/>
	<path d="M437.22,79.297v3.281h-2.813v6.27c0,1.271,0.027,2.01,0.081,2.221c0.054,0.209,0.176,0.384,0.366,0.521
		c0.19,0.138,0.423,0.205,0.696,0.205c0.381,0,0.933-0.133,1.654-0.396l0.353,3.192c-0.957,0.41-2.041,0.615-3.252,0.615
		c-0.742,0-1.411-0.125-2.007-0.373c-0.597-0.25-1.033-0.571-1.313-0.968c-0.278-0.395-0.471-0.93-0.579-1.604
		c-0.087-0.479-0.131-1.445-0.131-2.9v-6.782h-1.89v-3.281h1.89v-3.09l4.13-2.401v5.491L437.22,79.297L437.22,79.297z"/>
	<path d="M440.075,73.379h4.116v3.809h-4.116V73.379z M440.075,79.297h4.116v15.557h-4.116V79.297z"/>
	<path d="M446.609,79.297h2.285v-1.172c0-1.307,0.139-2.285,0.417-2.93c0.278-0.646,0.791-1.168,1.538-1.574
		s1.691-0.607,2.835-0.607c1.172,0,2.32,0.176,3.441,0.527l-0.557,2.871c-0.654-0.156-1.284-0.234-1.89-0.234
		c-0.597,0-1.023,0.139-1.282,0.416c-0.259,0.279-0.388,0.814-0.388,1.605v1.098h3.075v3.238h-3.075v12.318h-4.116V82.535h-2.285
		L446.609,79.297L446.609,79.297z"/>
	<path d="M458.401,73.379h4.115v3.809h-4.115V73.379z M458.401,79.297h4.115v15.557h-4.115V79.297z"/>
	<path d="M480.301,83.896l-4.059,0.731c-0.137-0.812-0.446-1.42-0.931-1.83c-0.482-0.409-1.11-0.614-1.882-0.614
		c-1.026,0-1.844,0.354-2.454,1.061c-0.61,0.709-0.915,1.893-0.915,3.553c0,1.846,0.31,3.15,0.93,3.912s1.453,1.143,2.498,1.143
		c0.781,0,1.421-0.223,1.919-0.668c0.497-0.442,0.851-1.207,1.056-2.291l4.043,0.688c-0.42,1.854-1.228,3.258-2.417,4.205
		c-1.191,0.946-2.788,1.42-4.79,1.42c-2.275,0-4.091-0.718-5.442-2.151c-1.352-1.436-2.028-3.425-2.028-5.964
		c0-2.567,0.68-4.567,2.036-5.997c1.357-1.433,3.193-2.146,5.508-2.146c1.896,0,3.4,0.408,4.521,1.223
		C479.009,80.984,479.813,82.227,480.301,83.896"/>
	<path d="M483.421,73.379h4.115v3.809h-4.115V73.379z M483.421,79.297h4.115v15.557h-4.115V79.297z"/>
	<path d="M494.832,84.043l-3.735-0.674c0.42-1.504,1.143-2.617,2.168-3.34c1.024-0.723,2.549-1.084,4.57-1.084
		c1.836,0,3.202,0.217,4.102,0.652c0.898,0.434,1.531,0.985,1.896,1.653c0.367,0.67,0.551,1.897,0.551,3.687l-0.044,4.805
		c0,1.367,0.064,2.375,0.196,3.023c0.133,0.649,0.379,1.346,0.74,2.088h-4.072c-0.106-0.273-0.238-0.679-0.396-1.215
		c-0.069-0.244-0.117-0.406-0.146-0.484c-0.702,0.684-1.454,1.197-2.257,1.539c-0.8,0.342-1.654,0.512-2.563,0.512
		c-1.603,0-2.863-0.434-3.787-1.303c-0.922-0.869-1.384-1.969-1.384-3.297c0-0.879,0.21-1.662,0.63-2.353
		c0.42-0.688,1.008-1.215,1.766-1.582c0.756-0.364,1.848-0.687,3.273-0.959c1.924-0.36,3.257-0.696,3.999-1.01v-0.41
		c0-0.791-0.195-1.354-0.586-1.692c-0.393-0.336-1.128-0.504-2.212-0.504c-0.732,0-1.306,0.143-1.715,0.432
		C495.418,82.814,495.086,83.32,494.832,84.043 M500.34,87.383c-0.527,0.176-1.362,0.387-2.506,0.631
		c-1.143,0.244-1.891,0.482-2.24,0.717c-0.537,0.381-0.807,0.865-0.807,1.451c0,0.576,0.216,1.074,0.646,1.494
		c0.429,0.42,0.977,0.629,1.641,0.629c0.742,0,1.45-0.244,2.123-0.732c0.498-0.37,0.826-0.823,0.982-1.36
		c0.106-0.353,0.161-1.021,0.161-2.008V87.383z"/>
	<rect x="508.44" y="73.379" width="4.115" height="21.475"/>
	<rect x="349.432" y="106.879" width="4.336" height="21.475"/>
	<path d="M372.02,128.354h-4.116v-7.938c0-1.681-0.088-2.767-0.264-3.261c-0.176-0.491-0.462-0.875-0.856-1.147
		c-0.396-0.272-0.871-0.409-1.429-0.409c-0.713,0-1.353,0.194-1.919,0.586c-0.565,0.391-0.955,0.907-1.165,1.553
		c-0.21,0.645-0.313,1.836-0.313,3.574v7.045h-4.116v-15.558h3.823v2.285c1.356-1.758,3.065-2.638,5.127-2.638
		c0.907,0,1.737,0.164,2.489,0.49c0.753,0.328,1.32,0.746,1.706,1.254c0.387,0.508,0.654,1.084,0.806,1.728
		c0.151,0.646,0.229,1.567,0.229,2.771L372.02,128.354L372.02,128.354z"/>
	<path d="M383.328,112.797v3.281h-2.813v6.27c0,1.271,0.027,2.01,0.081,2.221c0.054,0.209,0.176,0.384,0.366,0.521
		c0.189,0.138,0.423,0.205,0.696,0.205c0.381,0,0.933-0.133,1.654-0.396l0.353,3.192c-0.957,0.41-2.041,0.615-3.252,0.615
		c-0.742,0-1.411-0.125-2.008-0.373c-0.596-0.25-1.032-0.571-1.312-0.967c-0.278-0.396-0.471-0.931-0.579-1.604
		c-0.087-0.479-0.131-1.445-0.131-2.9v-6.782h-1.89v-3.281h1.89v-3.09l4.13-2.401v5.491L383.328,112.797L383.328,112.797z"/>
	<path d="M395.193,123.402l4.103,0.688c-0.527,1.505-1.36,2.647-2.498,3.435s-2.562,1.18-4.271,1.18
		c-2.705,0-4.707-0.883-6.006-2.65c-1.024-1.416-1.538-3.203-1.538-5.361c0-2.577,0.673-4.598,2.021-6.059
		c1.348-1.459,3.052-2.189,5.11-2.189c2.315,0,4.143,0.765,5.479,2.293c1.338,1.527,1.978,3.869,1.919,7.023H389.2
		c0.028,1.221,0.36,2.17,0.995,2.85c0.636,0.679,1.427,1.019,2.373,1.019c0.646,0,1.188-0.176,1.626-0.526
		C394.634,124.752,394.969,124.184,395.193,123.402 M395.428,119.242c-0.029-1.191-0.337-2.098-0.923-2.717
		c-0.586-0.621-1.299-0.93-2.141-0.93c-0.896,0-1.64,0.325-2.226,0.979c-0.586,0.653-0.874,1.543-0.864,2.666L395.428,119.242
		L395.428,119.242z"/>
	<rect x="402.868" y="106.879" width="4.116" height="21.475"/>
	<rect x="411.203" y="106.879" width="4.116" height="21.475"/>
	<path d="M419.538,106.879h4.116v3.809h-4.116V106.879z M419.538,112.797h4.116v15.557h-4.116V112.797z"/>
	<path d="M427.492,129.379l4.702,0.572c0.078,0.547,0.259,0.922,0.542,1.127c0.392,0.293,1.006,0.439,1.846,0.439
		c1.074,0,1.881-0.16,2.418-0.482c0.36-0.215,0.635-0.563,0.819-1.041c0.127-0.342,0.19-0.971,0.19-1.889v-2.271
		c-1.23,1.68-2.783,2.52-4.658,2.52c-2.09,0-3.744-0.883-4.966-2.649c-0.957-1.396-1.437-3.136-1.437-5.216
		c0-2.606,0.627-4.6,1.882-5.977c1.256-1.377,2.815-2.066,4.682-2.066c1.924,0,3.51,0.847,4.76,2.535v-2.184h3.854v13.961
		c0,1.836-0.151,3.207-0.454,4.115c-0.304,0.908-0.729,1.621-1.274,2.139s-1.277,0.924-2.189,1.217
		c-0.913,0.293-2.067,0.439-3.465,0.439c-2.638,0-4.507-0.453-5.609-1.355c-1.104-0.903-1.655-2.049-1.655-3.436
		C427.479,129.74,427.483,129.574,427.492,129.379 M431.17,120.254c0,1.65,0.318,2.857,0.959,3.625
		c0.64,0.766,1.429,1.15,2.365,1.15c1.007,0,1.855-0.396,2.55-1.18c0.692-0.787,1.04-1.951,1.04-3.494
		c0-1.611-0.332-2.808-0.996-3.588c-0.664-0.781-1.504-1.172-2.521-1.172c-0.985,0-1.8,0.383-2.438,1.147
		C431.489,117.512,431.17,118.682,431.17,120.254"/>
	<path d="M455.207,123.402l4.103,0.688c-0.527,1.505-1.36,2.647-2.498,3.435s-2.561,1.18-4.27,1.18c-2.705,0-4.707-0.883-6.007-2.65
		c-1.024-1.416-1.538-3.203-1.538-5.361c0-2.577,0.674-4.598,2.021-6.059c1.348-1.459,3.052-2.189,5.112-2.189
		c2.313,0,4.141,0.765,5.479,2.293c1.338,1.527,1.979,3.869,1.919,7.023h-10.313c0.028,1.221,0.36,2.17,0.997,2.85
		c0.634,0.679,1.425,1.019,2.372,1.019c0.645,0,1.187-0.176,1.626-0.526C454.65,124.752,454.983,124.184,455.207,123.402
		 M455.442,119.242c-0.029-1.191-0.337-2.098-0.923-2.717c-0.586-0.621-1.299-0.93-2.139-0.93c-0.898,0-1.642,0.325-2.228,0.979
		c-0.586,0.653-0.874,1.543-0.864,2.666L455.442,119.242L455.442,119.242z"/>
	<path d="M477.033,128.354h-4.115v-7.938c0-1.681-0.089-2.767-0.265-3.261c-0.176-0.491-0.462-0.875-0.856-1.147
		c-0.396-0.272-0.871-0.409-1.429-0.409c-0.713,0-1.353,0.194-1.919,0.586c-0.565,0.391-0.955,0.907-1.165,1.553
		c-0.21,0.645-0.313,1.836-0.313,3.574v7.045h-4.116v-15.558h3.823v2.285c1.356-1.758,3.065-2.638,5.128-2.638
		c0.907,0,1.737,0.164,2.489,0.49c0.752,0.328,1.319,0.746,1.707,1.254c0.385,0.508,0.652,1.084,0.804,1.728
		c0.151,0.646,0.229,1.567,0.229,2.771L477.033,128.354L477.033,128.354z"/>
	<path d="M494.773,117.396l-4.058,0.731c-0.138-0.812-0.447-1.42-0.931-1.83c-0.483-0.409-1.11-0.614-1.883-0.614
		c-1.025,0-1.844,0.354-2.453,1.061c-0.61,0.709-0.916,1.893-0.916,3.553c0,1.846,0.311,3.15,0.931,3.912
		c0.619,0.762,1.453,1.143,2.498,1.143c0.78,0,1.421-0.223,1.919-0.668c0.497-0.442,0.85-1.207,1.055-2.291l4.043,0.688
		c-0.42,1.854-1.228,3.258-2.417,4.205c-1.191,0.946-2.788,1.42-4.79,1.42c-2.275,0-4.09-0.718-5.442-2.151
		c-1.352-1.436-2.027-3.425-2.027-5.964c0-2.567,0.679-4.567,2.036-5.997c1.356-1.433,3.192-2.146,5.508-2.146
		c1.895,0,3.399,0.408,4.52,1.223C493.481,114.484,494.284,115.727,494.773,117.396"/>
	<path d="M506.902,123.402l4.103,0.688c-0.527,1.505-1.36,2.647-2.498,3.435c-1.139,0.787-2.562,1.18-4.271,1.18
		c-2.705,0-4.707-0.883-6.006-2.65c-1.025-1.416-1.538-3.203-1.538-5.361c0-2.577,0.673-4.598,2.021-6.059
		c1.348-1.459,3.052-2.189,5.11-2.189c2.315,0,4.143,0.765,5.479,2.293c1.338,1.527,1.978,3.869,1.919,7.023h-10.313
		c0.029,1.221,0.361,2.17,0.996,2.85c0.635,0.679,1.426,1.019,2.373,1.019c0.646,0,1.188-0.176,1.626-0.526
		C506.343,124.752,506.678,124.184,506.902,123.402 M507.137,119.242c-0.029-1.191-0.337-2.098-0.923-2.717
		c-0.586-0.621-1.3-0.93-2.14-0.93c-0.897,0-1.641,0.325-2.227,0.979c-0.586,0.653-0.874,1.543-0.864,2.666L507.137,119.242
		L507.137,119.242z"/>
</g>
</svg>
