<?xml version="1.0" encoding="UTF-8" standalone="no"?>
<!-- Created with Inkscape (http://www.inkscape.org/) -->

<svg
   xmlns:dc="http://purl.org/dc/elements/1.1/"
   xmlns:cc="http://creativecommons.org/ns#"
   xmlns:rdf="http://www.w3.org/1999/02/22-rdf-syntax-ns#"
   xmlns:svg="http://www.w3.org/2000/svg"
   xmlns="http://www.w3.org/2000/svg"
   xmlns:sodipodi="http://sodipodi.sourceforge.net/DTD/sodipodi-0.dtd"
   xmlns:inkscape="http://www.inkscape.org/namespaces/inkscape"
   width="60.43412mm"
   height="86.661674mm"
   viewBox="0 0 214.13665 307.06893"
   id="svg2"
   version="1.1"
   inkscape:version="0.91 r13725"
   sodipodi:docname="impala.svg"
   inkscape:export-filename="/home/perard/Pictures/impala2.png"
   inkscape:export-xdpi="41.912411"
   inkscape:export-ydpi="41.912411">
  <defs
     id="defs4" />
  <sodipodi:namedview
     id="base"
     pagecolor="#ffffff"
     bordercolor="#666666"
     borderopacity="1.0"
     inkscape:pageopacity="0.0"
     inkscape:pageshadow="2"
     inkscape:zoom="0.7"
     inkscape:cx="825.98251"
     inkscape:cy="-23.686627"
     inkscape:document-units="px"
     inkscape:current-layer="layer1"
     showgrid="false"
     inkscape:window-width="1920"
     inkscape:window-height="1136"
     inkscape:window-x="0"
     inkscape:window-y="27"
     inkscape:window-maximized="1"
     fit-margin-top="0"
     fit-margin-left="0"
     fit-margin-right="0"
     fit-margin-bottom="0" />
  <metadata
     id="metadata7">
    <rdf:RDF>
      <cc:Work
         rdf:about="">
        <dc:format>image/svg+xml</dc:format>
        <dc:type
           rdf:resource="http://purl.org/dc/dcmitype/StillImage" />
        <dc:title></dc:title>
      </cc:Work>
    </rdf:RDF>
  </metadata>
  <g
     inkscape:label="Layer 1"
     inkscape:groupmode="layer"
     id="layer1"
     transform="translate(-79.789,-40.085016)">
    <path
       style="fill:#000000;fill-opacity:1;fill-rule:evenodd;stroke:none;stroke-width:1px;stroke-linecap:butt;stroke-linejoin:miter;stroke-opacity:1"
       d="M 153.45414,278.10496 C 144.92828,263.012 115.25151,269.78714 99.642859,250.5765 86.845809,216.96633 59.577509,183.21876 117.5,215.39793 c 14.77333,6.1727 22.87872,21.18022 37.5,27.67857 1.59569,-1.8532 2.97456,-1.87579 4.64286,-2.85714 -1.27258,-1.48134 -1.81314,-3.58849 -2.36607,-5.08929 -0.0377,-0.79577 -0.0964,-1.70423 -0.13393,-2.45536 -1.33366,-0.79713 -1.86504,-2.76288 -3.66071,-3.66071 0.1794,-1.23687 -0.0382,-2.07033 -0.35715,-3.08036 -1.41006,-1.47168 -2.35962,-3.12095 -4.24107,-3.61607 -0.95968,-1.46309 -2.13294,-2.88195 -2.90178,-4.41964 -2.5526,-4.70531 -7.00149,-8.7872 -10.625,-12.41072 -2.97272,0.30045 -5.68645,-1.88967 -5.9375,-4.77678 -3.35631,-2.29424 -7.62923,-3.43809 -9.375,-7.36607 -5.139,-2.60786 -10.68199,-4.36022 -14.6875,-8.61608 -4.09555,-2.5177 -8.769731,-4.39295 -11.919651,-7.76785 -2.62346,-1.67009 -11.75546,-4.21986 -9.82142,-8.57143 -2.09378,-0.8266 -5.19225,-4.71847 -3.16965,-6.74107 -1.77029,-3.70537 1.57079,-4.33865 3.66072,-6.42857 -0.90505,-5.09087 0.68827,-7.14718 6.16071,-7.36608 0.48909,-3.71349 0.22789,-5.53134 3.88393,-7.09821 1.05219,-1.22167 0.7837,-2.95626 1.33929,-4.46429 -1.17321,-3.65214 0.85652,-5.69126 3.48214,-7.54464 0.28456,-1.95807 -0.91594,-5.14136 0.89286,-6.20536 -0.7253,-2.02698 -0.11109,-3.46675 1.428571,-4.55357 -0.15725,-4.04656 -0.0112,-8.09632 1.65178,-11.60715 -0.6406,-9.212544 1.49831,-18.448284 1.96429,-27.767864 -0.84914,-8.876796 3.896,-16.160256 5.80357,-24.553566 2.44695,11.09647 1.55025,23.146686 0.98214,34.508926 0.46461,10.49986 0.98215,21.162404 0.98215,31.741084 1.50597,1.1914 0.1947,2.99936 -0.53572,4.24107 0.9399,4.88957 -0.0565,7.88081 -1.96428,11.69643 -0.88605,3.77417 0.75215,6.64909 -3.57143,9.95536 -0.41148,3.71645 0.26853,4.70697 -3.39286,6.74107 2.48277,4.44887 -2.9334,4.68508 -2.41071,8.16964 0.92424,2.93069 6.20535,0.32898 6.20535,4.91072 3.42274,0.2274 5.28986,1.5395 6.69643,4.50893 0.77264,2.31815 3.63842,2.04886 5.53572,1.25 0.70327,0.0387 1.67023,0.22856 2.05357,0.80357 0.69711,1.04566 -0.27931,2.44391 0.66964,3.39285 2.66526,2.66526 6.89451,-0.14234 8.92857,4.15179 1.89896,2.54892 8.56677,1.28531 10.04464,4.24107 1.02569,2.05137 -1.47304,3.19876 1.07143,4.59822 6.65501,1.97373 5.73994,0.14211 7.5,6.83035 3.26939,3.52815 6.99843,2.25668 8.57143,7.5 3.13468,3.44584 5.8111,2.89479 7.00893,8.88393 2.6981,-0.27016 3.67636,1.13214 3.79464,3.61607 2.52974,8.16088 5.58036,2.06483 5.58036,11.5625 1.95086,3.15955 4.65531,2.08885 5.04464,5.98215 3.82217,7.00284 18.15457,5.83372 21.83036,-1.51786 -0.4822,-8.90059 2.98683,-0.80368 3.88393,-10.22322 -0.64862,-2.37036 3.91374,-2.55962 4.33036,-3.39285 1.92009,-3.84018 -0.95232,-8.16815 5.26785,-7.85715 0.82092,-0.0994 1.61628,-0.55399 2.00893,-1.33928 0.73797,-1.47593 0.0238,-3.66358 0.75893,-5.13393 1.62076,-3.24152 5.2598,-0.28531 5.53571,-5.80357 0.2735,-1.10868 0.55021,-1.60045 1.78572,-1.875 1.46211,-0.32492 2.96163,0.63972 4.33036,-0.0446 5.13084,-2.56543 0.77333,-7.76786 7.99107,-7.76786 4.18918,0.99047 2.89255,-5.13089 5.71428,-6.07147 1.4754,-0.4918 3.68307,0.51336 4.86607,-0.66964 3.5897,-3.5897 2.56237,-6.59483 8.52679,-6.02679 1.15453,-3.72081 5.88886,-3.03372 8.57143,-4.375 0.80873,-0.40436 0.4106,-3.3696 3.70536,-4.6875 1.31104,-0.52442 4.8663,-0.71475 5.49107,-1.96428 1.52037,-3.04074 -7.09948,-6.2937 -3.34822,-9.10715 0.3849,-1.75683 -2.49105,-2.40176 -3.88393,-3.79464 -0.64103,-0.64104 -3.1482,-9.28198 -2.85714,-9.77679 0.0498,-2.84171 -8.08486,-6.22109 -2.72321,-9.375 1.8491,-3.86349 -7.55249,-6.63095 -1.51786,-10.53571 0.1029,-3.93418 -3.53064,-8.45624 -0.53571,-12.81251 -1.92876,-13.750374 3.70536,-27.639164 5.89286,-40.44643 2.06262,-9.14374 0.97694,-20.01062 4.82142,-28.66071 2.77149,-0.14536 1.1457,38.959436 0.66964,42.767846 1.63055,8.37647 -3.43092,23.094584 1.38393,30.535734 -2.29844,7.33737 1.27583,8.47034 2.94643,13.48214 0.32461,0.97384 -1.07143,3.75155 -1.07143,5.13393 -0.44692,3.6539 3.93121,4.60349 5,6.74107 0.89341,1.78681 -0.37913,4.96702 0.89286,6.875 1.03891,1.55837 4.42501,2.27032 5.75893,3.4375 1.37995,0.77779 -0.61161,2.49777 -0.0446,3.34822 0.76847,1.1527 3.00577,0.55041 4.0625,1.60714 1.70148,1.70148 0.89954,3.45755 1.60714,5.58036 1.05971,3.17912 4.77346,2.57195 1.33928,7.72321 1.97174,4.58824 -2.20963,5.81462 -5.31254,7.36607 -1.20584,0.60292 -1.1953,2.71651 -2.67857,3.70536 -5.14425,3.4295 -19.67163,8.49008 -22.85714,12.41071 -0.22302,1.08873 -1.17066,2.96463 -2.32143,3.34822 -1.37541,0.45847 -4.09467,0.0607 -5.3125,0.66964 -3.84195,1.92097 -5.09902,7.33339 -9.46428,8.48214 -9.53751,7.44648 -17.23626,18.71359 -22.63393,29.50893 -0.50195,1.00391 1.59089,1.41642 1.02678,2.54464 -1.4275,2.85501 -2.71029,3.21783 -2.54464,6.69643 0.71375,1.36521 3.19272,5.87029 5.40179,5.13393 3.19993,-1.06664 4.5466,-3.85638 7.32142,-5.9375 9.13964,-6.85472 16.36652,-18.26466 28.21429,-20.75893 50.3101,-19.11452 31.25942,6.83221 13.48214,37.05357 -15.07045,12.10967 -36.18413,9.53185 -49.28571,19.64286 -2.8445,17.6696 -4.15738,18.69915 -11.95365,34.09916 -4.96949,14.3293 -5.02999,14.3675 -11.28293,30.44766 -9.22733,7.41272 -18.56908,7.04756 -26.65328,0 -5.33429,-12.27251 -7.71273,-18.07329 -12.56566,-30.44766 -5.63433,-10.64262 -8.43718,-18.62475 -9.62606,-33.17784 z"
       id="path4147"
       inkscape:connector-curvature="0"
       sodipodi:nodetypes="ccccccccccccccccccccccccccccccccccccccsscscccccccccscscccccsscssscsccccccccscssccsscsscsccsscsscccccccc" />
    <path
       style="fill:#ffffff;fill-rule:evenodd;stroke:none;stroke-width:1px;stroke-linecap:butt;stroke-linejoin:miter;stroke-opacity:1"
       d="m 216.71429,268.64793 c 1.82563,5.67516 -0.0629,10.61956 -2.67858,14.10714 -3.16736,-1.12287 -4.59576,-3.91995 -6.07142,-6.42857 2.62637,-3.87727 4.19184,-6.47906 8.75,-7.67857 z"
       id="path4169"
       inkscape:connector-curvature="0" />
    <path
       style="fill:#ffffff;fill-opacity:1;fill-rule:evenodd;stroke:none;stroke-width:1px;stroke-linecap:butt;stroke-linejoin:miter;stroke-opacity:1"
       d="m 162.19097,268.88507 c -1.82563,5.67516 0.0629,10.61956 2.67858,14.10714 3.16736,-1.12287 4.59576,-3.91995 6.07142,-6.42857 -2.62637,-3.87727 -4.19184,-6.47906 -8.75,-7.67857 z"
       id="path4169-3"
       inkscape:connector-curvature="0" />
    <g
       id="g4215"
       transform="translate(-380.71428,11.428572)">
      <path
         sodipodi:nodetypes="ccccc"
         inkscape:connector-curvature="0"
         id="path4190"
         d="m 559.52678,312.31757 c 6.12969,1.0933 8.76458,-0.96336 10.58037,5.08928 1.30521,-6.01022 3.59883,-3.71593 10.26785,-4.91072 -4.57935,2.07654 -6.14403,4.8787 -10.3833,5.99429 -3.8292,-0.74679 -7.10283,-4.13033 -10.46492,-6.17285 z"
         style="fill:#ffffff;fill-opacity:1;fill-rule:evenodd;stroke:none;stroke-width:1px;stroke-linecap:butt;stroke-linejoin:miter;stroke-opacity:1" />
      <path
         sodipodi:nodetypes="cccc"
         inkscape:connector-curvature="0"
         id="path4196"
         d="m 567.42912,317.3622 c 2.75822,2.4545 2.17978,4.62727 2.46277,8.33032 0.28299,-3.64956 -0.0953,-6.07487 2.663,-8.52937 z"
         style="fill:#ffffff;fill-opacity:1;fill-rule:evenodd;stroke:none;stroke-width:1px;stroke-linecap:butt;stroke-linejoin:miter;stroke-opacity:1" />
    </g>
    <path
       style="fill:none;fill-rule:evenodd;stroke:#ffffff;stroke-width:1.5;stroke-linecap:butt;stroke-linejoin:round;stroke-miterlimit:4;stroke-dasharray:none;stroke-opacity:1"
       d="m 162.32544,269.86224 c 18.39289,12.93766 13.57143,19.14416 14.64286,26.25"
       id="path4150"
       inkscape:connector-curvature="0"
       sodipodi:nodetypes="cc" />
    <path
       style="fill:none;fill-rule:evenodd;stroke:#ffffff;stroke-width:1.5;stroke-linecap:butt;stroke-linejoin:miter;stroke-miterlimit:4;stroke-dasharray:none;stroke-opacity:1"
       d="m 216.3574,269.22588 c -18.39289,12.93766 -13.57143,19.14416 -14.64286,26.25"
       id="path4150-3"
       inkscape:connector-curvature="0"
       sodipodi:nodetypes="cc" />
  </g>
</svg>
